<svg xmlns="http://www.w3.org/2000/svg" version="1.1" xmlns:xlink="http://www.w3.org/1999/xlink" xmlns:svgjs="http://svgjs.dev/svgjs" width="2000" height="595" viewBox="0 0 2000 595"><g transform="matrix(1,0,0,1,-1.2121212121212466,-1.0510089402750395)"><svg viewBox="0 0 396 118" data-background-color="#ffffff" preserveAspectRatio="xMidYMid meet" height="595" width="2000" xmlns="http://www.w3.org/2000/svg" xmlns:xlink="http://www.w3.org/1999/xlink"><g id="tight-bounds" transform="matrix(1,0,0,1,0.2400000000000091,0.2084353864747186)"><svg viewBox="0 0 395.52 117.58312922705056" height="117.58312922705056" width="395.52"><g><svg viewBox="0 0 676.1133210401986 200.99999999999997" height="117.58312922705056" width="395.52"><g><rect width="18.0362064" height="200.99999999999997" x="238.15720000000002" y="0" fill="#ffffff" opacity="1" stroke-width="0" stroke="transparent" fill-opacity="1" class="rect-yte-0" data-fill-palette-color="primary" rx="1%" id="yte-0" data-palette-color="#111111"></rect></g><g transform="matrix(1,0,0,1,303.4086064,0.4999999999999858)"><svg viewBox="0 0 372.7047146401985 200" height="200" width="372.7047146401985"><g id="textblocktransform"><svg viewBox="0 0 372.7047146401985 200" height="200" width="372.7047146401985" id="textblock"><g><svg viewBox="0 0 372.7047146401985 200" height="200" width="372.7047146401985"><g transform="matrix(1,0,0,1,0,0)"><svg width="372.7047146401985" viewBox="2.81 -28.98 55 29.52" height="200" data-palette-color="#111111"><path d="M26.73-28.98Q27.56-28.98 27.92-28.6 28.27-28.22 28.27-27.32L28.27-27.32Q28.27-26.42 27.92-26.04 27.56-25.66 26.73-25.66L26.73-25.66 21.83-25.66 21.83-8.13Q21.83-3.86 19.34-1.66 16.85 0.54 12.06 0.54L12.06 0.54Q9.28 0.54 7.02-0.45 4.76-1.44 3.2-3.15L3.2-3.15Q2.81-3.61 2.81-4.39L2.81-4.39 2.81-11.35Q2.81-12.21 3.22-12.57 3.64-12.94 4.64-12.94L4.64-12.94Q5.64-12.94 6.05-12.57 6.47-12.21 6.47-11.35L6.47-11.35 6.47-4.91Q8.52-3.08 12.08-3.08L12.08-3.08Q15.28-3.08 16.72-4.49 18.16-5.91 18.16-8.86L18.16-8.86 18.16-25.66 9.84-25.66Q9.01-25.66 8.65-26.04 8.3-26.42 8.3-27.32L8.3-27.32Q8.3-28.22 8.65-28.6 9.01-28.98 9.84-28.98L9.84-28.98 26.73-28.98ZM44.97-28.98Q48.8-28.98 51.71-27.23 54.61-25.49 56.21-22.2 57.81-18.92 57.81-14.48L57.81-14.48Q57.81-10.03 56.21-6.76 54.61-3.49 51.71-1.75 48.8 0 44.97 0L44.97 0 33.47 0Q32.64 0 32.29-0.38 31.93-0.76 31.93-1.66L31.93-1.66Q31.93-2.56 32.29-2.94 32.64-3.32 33.47-3.32L33.47-3.32 36.2-3.32 36.2-25.66 33.47-25.66Q32.64-25.66 32.29-26.04 31.93-26.42 31.93-27.32L31.93-27.32Q31.93-28.22 32.29-28.6 32.64-28.98 33.47-28.98L33.47-28.98 44.97-28.98ZM39.87-25.66L39.87-3.32 44.41-3.32Q47.31-3.32 49.46-4.6 51.61-5.88 52.78-8.39 53.95-10.89 53.95-14.48L53.95-14.48Q53.95-18.07 52.78-20.57 51.61-23.07 49.46-24.37 47.31-25.66 44.41-25.66L44.41-25.66 39.87-25.66Z" opacity="1" transform="matrix(1,0,0,1,0,0)" fill="#ffffff" class="wordmark-text-0" data-fill-palette-color="primary" id="text-0"></path></svg></g></svg></g></svg></g></svg></g><g transform="matrix(1,0,0,1,0,0.4999999999999858)"><svg viewBox="0 0 190.942 200" height="200" width="190.942"><g><svg version="1.0" xmlns="http://www.w3.org/2000/svg" xmlns:xlink="http://www.w3.org/1999/xlink" x="0" y="0" viewBox="0 0 95.471 100" enable-background="new 0 0 95.471 100" xml:space="preserve" id="icon-0" width="190.942" height="200" class="icon-icon-0" data-fill-palette-color="accent"><path d="M47.735 0C47.652 2.825 45.997 13.412 27.936 30.934 10.554 47.797 2.439 49.824 0 50 2.439 50.178 10.554 52.204 27.936 69.066 45.997 86.589 47.652 97.177 47.735 100 47.818 97.177 49.474 86.589 67.533 69.066 84.917 52.204 93.031 50.178 95.471 50 93.032 49.824 84.917 47.797 67.533 30.934 49.475 13.412 47.819 2.825 47.735 0" fill="#ffffff" data-fill-palette-color="accent"></path></svg></g></svg></g></svg></g><defs></defs></svg><rect width="395.52" height="117.58312922705056" fill="none" stroke="none" visibility="hidden"></rect></g></svg></g></svg>